<svg xmlns="http://www.w3.org/2000/svg" version="1.1" xmlns:xlink="http://www.w3.org/1999/xlink" xmlns:svgjs="http://svgjs.dev/svgjs" viewBox="0 0 800 800"><defs><linearGradient x1="50%" y1="0%" x2="50%" y2="100%" id="ffflurry-grad" gradientTransform="rotate(270)"><stop stop-color="hsl(238, 82%, 13%)" stop-opacity="1" offset="0%"></stop><stop stop-color="hsl(1.4, 100%, 67%)" stop-opacity="1" offset="45%"></stop><stop stop-color="hsl(167, 52%, 78%)" stop-opacity="1" offset="100%"></stop></linearGradient></defs><rect width="100%" height="100%" fill="hsl(238, 82%, 13%)"></rect><g fill="url(#ffflurry-grad)"><rect width="542" height="3" x="15" y="421.5" rx="1.5" transform="rotate(45, 286, 423)" opacity="0.70"></rect><rect width="273" height="3" x="-65.5" y="670.5" rx="1.5" transform="rotate(45, 71, 672)" opacity="0.82"></rect><rect width="512" height="3" x="-4" y="242.5" rx="1.5" transform="rotate(45, 252, 244)" opacity="0.95"></rect><rect width="50" height="3" x="150" y="544.5" rx="1.5" transform="rotate(45, 175, 546)" opacity="0.57"></rect><rect width="393" height="3" x="1.5" y="114.5" rx="1.5" transform="rotate(45, 198, 116)" opacity="0.41"></rect><rect width="415" height="3" x="328.5" y="331.5" rx="1.5" transform="rotate(45, 536, 333)" opacity="0.86"></rect><rect width="106" height="3" x="560" y="219.5" rx="1.5" transform="rotate(45, 613, 221)" opacity="0.19"></rect><rect width="176" height="3" x="641" y="621.5" rx="1.5" transform="rotate(45, 729, 623)" opacity="0.99"></rect><rect width="67" height="3" x="357.5" y="516.5" rx="1.5" transform="rotate(45, 391, 518)" opacity="0.64"></rect><rect width="258" height="3" x="549" y="770.5" rx="1.5" transform="rotate(45, 678, 772)" opacity="0.58"></rect><rect width="270" height="3" x="-69" y="597.5" rx="1.5" transform="rotate(45, 66, 599)" opacity="0.82"></rect><rect width="131" height="3" x="578.5" y="702.5" rx="1.5" transform="rotate(45, 644, 704)" opacity="0.47"></rect><rect width="630" height="3" x="-14" y="136.5" rx="1.5" transform="rotate(45, 301, 138)" opacity="0.18"></rect><rect width="328" height="3" x="23" y="26.5" rx="1.5" transform="rotate(45, 187, 28)" opacity="0.88"></rect><rect width="201" height="3" x="-31.5" y="506.5" rx="1.5" transform="rotate(45, 69, 508)" opacity="0.47"></rect><rect width="434" height="3" x="-33" y="647.5" rx="1.5" transform="rotate(45, 184, 649)" opacity="0.27"></rect><rect width="449" height="3" x="150.5" y="302.5" rx="1.5" transform="rotate(45, 375, 304)" opacity="0.28"></rect><rect width="449" height="3" x="-190.5" y="742.5" rx="1.5" transform="rotate(45, 34, 744)" opacity="0.87"></rect><rect width="180" height="3" x="148" y="484.5" rx="1.5" transform="rotate(45, 238, 486)" opacity="0.70"></rect><rect width="279" height="3" x="143.5" y="692.5" rx="1.5" transform="rotate(45, 283, 694)" opacity="0.10"></rect><rect width="482" height="3" x="-196" y="293.5" rx="1.5" transform="rotate(45, 45, 295)" opacity="0.49"></rect><rect width="459" height="3" x="-80.5" y="279.5" rx="1.5" transform="rotate(45, 149, 281)" opacity="0.75"></rect><rect width="384" height="3" x="502" y="339.5" rx="1.5" transform="rotate(45, 694, 341)" opacity="0.61"></rect><rect width="484" height="3" x="-202" y="413.5" rx="1.5" transform="rotate(45, 40, 415)" opacity="0.77"></rect><rect width="463" height="3" x="264.5" y="138.5" rx="1.5" transform="rotate(45, 496, 140)" opacity="0.71"></rect><rect width="580" height="3" x="332" y="46.5" rx="1.5" transform="rotate(45, 622, 48)" opacity="0.66"></rect><rect width="113" height="3" x="422.5" y="423.5" rx="1.5" transform="rotate(45, 479, 425)" opacity="0.64"></rect><rect width="221" height="3" x="259.5" y="640.5" rx="1.5" transform="rotate(45, 370, 642)" opacity="0.35"></rect><rect width="136" height="3" x="695" y="279.5" rx="1.5" transform="rotate(45, 763, 281)" opacity="0.61"></rect><rect width="91" height="3" x="177.5" y="758.5" rx="1.5" transform="rotate(45, 223, 760)" opacity="0.71"></rect><rect width="484" height="3" x="208" y="485.5" rx="1.5" transform="rotate(45, 450, 487)" opacity="0.74"></rect><rect width="71" height="3" x="75.5" y="363.5" rx="1.5" transform="rotate(45, 111, 365)" opacity="0.95"></rect><rect width="607" height="3" x="-133.5" y="424.5" rx="1.5" transform="rotate(45, 170, 426)" opacity="0.70"></rect><rect width="530" height="3" x="201" y="761.5" rx="1.5" transform="rotate(45, 466, 763)" opacity="0.24"></rect><rect width="57" height="3" x="683.5" y="200.5" rx="1.5" transform="rotate(45, 712, 202)" opacity="0.31"></rect><rect width="183" height="3" x="661.5" y="423.5" rx="1.5" transform="rotate(45, 753, 425)" opacity="0.19"></rect><rect width="393" height="3" x="-81.5" y="43.5" rx="1.5" transform="rotate(45, 115, 45)" opacity="0.11"></rect><rect width="404" height="3" x="193" y="139.5" rx="1.5" transform="rotate(45, 395, 141)" opacity="0.57"></rect><rect width="331" height="3" x="-57.5" y="775.5" rx="1.5" transform="rotate(45, 108, 777)" opacity="0.39"></rect><rect width="373" height="3" x="66.5" y="44.5" rx="1.5" transform="rotate(45, 253, 46)" opacity="0.12"></rect><rect width="250" height="3" x="522" y="595.5" rx="1.5" transform="rotate(45, 647, 597)" opacity="0.76"></rect><rect width="139" height="3" x="287.5" y="40.5" rx="1.5" transform="rotate(45, 357, 42)" opacity="0.34"></rect><rect width="489" height="3" x="301.5" y="409.5" rx="1.5" transform="rotate(45, 546, 411)" opacity="0.48"></rect><rect width="503" height="3" x="329.5" y="505.5" rx="1.5" transform="rotate(45, 581, 507)" opacity="0.38"></rect><rect width="167" height="3" x="-39.5" y="77.5" rx="1.5" transform="rotate(45, 44, 79)" opacity="0.28"></rect><rect width="235" height="3" x="193.5" y="525.5" rx="1.5" transform="rotate(45, 311, 527)" opacity="0.27"></rect><rect width="610" height="3" x="218" y="232.5" rx="1.5" transform="rotate(45, 523, 234)" opacity="0.66"></rect><rect width="435" height="3" x="50.5" y="599.5" rx="1.5" transform="rotate(45, 268, 601)" opacity="0.58"></rect><rect width="290" height="3" x="383" y="607.5" rx="1.5" transform="rotate(45, 528, 609)" opacity="0.49"></rect><rect width="231" height="3" x="496.5" y="293.5" rx="1.5" transform="rotate(45, 612, 295)" opacity="0.08"></rect><rect width="314" height="3" x="586" y="77.5" rx="1.5" transform="rotate(45, 743, 79)" opacity="0.61"></rect><rect width="165" height="3" x="407.5" y="42.5" rx="1.5" transform="rotate(45, 490, 44)" opacity="0.88"></rect><rect width="200" height="3" x="453" y="731.5" rx="1.5" transform="rotate(45, 553, 733)" opacity="0.64"></rect><rect width="170" height="3" x="374" y="322.5" rx="1.5" transform="rotate(45, 459, 324)" opacity="0.37"></rect><rect width="58" height="3" x="390" y="697.5" rx="1.5" transform="rotate(45, 419, 699)" opacity="0.36"></rect><rect width="178" height="3" x="387" y="649.5" rx="1.5" transform="rotate(45, 476, 651)" opacity="0.83"></rect><rect width="344" height="3" x="147" y="257.5" rx="1.5" transform="rotate(45, 319, 259)" opacity="0.97"></rect><rect width="462" height="3" x="-191" y="194.5" rx="1.5" transform="rotate(45, 40, 196)" opacity="0.16"></rect><rect width="326" height="3" x="174" y="365.5" rx="1.5" transform="rotate(45, 337, 367)" opacity="0.21"></rect><rect width="503" height="3" x="-109.5" y="725.5" rx="1.5" transform="rotate(45, 142, 727)" opacity="0.68"></rect><rect width="92" height="3" x="565" y="139.5" rx="1.5" transform="rotate(45, 611, 141)" opacity="0.52"></rect><rect width="413" height="3" x="420.5" y="388.5" rx="1.5" transform="rotate(45, 627, 390)" opacity="0.57"></rect><rect width="455" height="3" x="517.5" y="533.5" rx="1.5" transform="rotate(45, 745, 535)" opacity="0.61"></rect><rect width="430" height="3" x="209" y="234.5" rx="1.5" transform="rotate(45, 424, 236)" opacity="0.83"></rect><rect width="412" height="3" x="298" y="540.5" rx="1.5" transform="rotate(45, 504, 542)" opacity="0.56"></rect><rect width="219" height="3" x="475.5" y="609.5" rx="1.5" transform="rotate(45, 585, 611)" opacity="0.26"></rect><rect width="79" height="3" x="614.5" y="476.5" rx="1.5" transform="rotate(45, 654, 478)" opacity="0.85"></rect><rect width="377" height="3" x="571.5" y="717.5" rx="1.5" transform="rotate(45, 760, 719)" opacity="0.68"></rect><rect width="47" height="3" x="350.5" y="451.5" rx="1.5" transform="rotate(45, 374, 453)" opacity="0.26"></rect><rect width="357" height="3" x="20.5" y="194.5" rx="1.5" transform="rotate(45, 199, 196)" opacity="0.21"></rect><rect width="448" height="3" x="9" y="339.5" rx="1.5" transform="rotate(45, 233, 341)" opacity="0.71"></rect><rect width="175" height="3" x="260.5" y="755.5" rx="1.5" transform="rotate(45, 348, 757)" opacity="0.82"></rect><rect width="341" height="3" x="-53.5" y="174.5" rx="1.5" transform="rotate(45, 117, 176)" opacity="0.63"></rect><rect width="363" height="3" x="337.5" y="478.5" rx="1.5" transform="rotate(45, 519, 480)" opacity="0.58"></rect><rect width="362" height="3" x="185" y="578.5" rx="1.5" transform="rotate(45, 366, 580)" opacity="0.13"></rect><rect width="496" height="3" x="172" y="388.5" rx="1.5" transform="rotate(45, 420, 390)" opacity="0.55"></rect><rect width="229" height="3" x="329.5" y="572.5" rx="1.5" transform="rotate(45, 444, 574)" opacity="0.71"></rect></g></svg>