<svg xmlns="http://www.w3.org/2000/svg" version="1.1" xmlns:xlink="http://www.w3.org/1999/xlink" xmlns:svgjs="http://svgjs.dev/svgjs" viewBox="0 0 2400 800"><defs><linearGradient x1="50%" y1="0%" x2="50%" y2="100%" id="sssurf-grad"><stop stop-color="hsl(162, 100%, 58%)" stop-opacity="1" offset="0%"></stop><stop stop-color="hsl(270, 73%, 53%)" stop-opacity="1" offset="100%"></stop></linearGradient></defs><g fill="url(#sssurf-grad)" transform="matrix(1,0,0,1,10.8282470703125,224.10202026367188)"><path d="M-10,10C33.75,12.083333333333334,114.58333333333334,27.916666666666664,200,20C285.41666666666663,12.083333333333334,316.66666666666663,-31.541666666666668,400,-28C483.33333333333337,-24.458333333333332,516.6666666666666,34.708333333333336,600,37C683.3333333333334,39.291666666666664,716.6666666666666,-14.708333333333334,800,-17C883.3333333333334,-19.291666666666668,916.6666666666666,26.833333333333332,1000,26C1083.3333333333333,25.166666666666668,1116.6666666666667,-23.083333333333332,1200,-21C1283.3333333333333,-18.916666666666668,1316.6666666666667,33.916666666666664,1400,36C1483.3333333333333,38.083333333333336,1516.6666666666667,-14.541666666666668,1600,-11C1683.3333333333333,-7.458333333333333,1716.6666666666667,48.625,1800,53C1883.3333333333333,57.375,1916.6666666666667,12.083333333333334,2000,10C2083.3333333333335,7.916666666666666,2118.75,43,2200,43C2281.25,43,2296.25,-64.375,2390,10C2483.75,84.375,3252.0833333333335,214.58333333333331,2650,400C2047.9166666666665,585.4166666666667,156.25,795.8333333333334,-500,900" transform="matrix(1,0,0,1,0,35)" opacity="0.05"></path><path d="M-10,10C33.75,12.083333333333334,114.58333333333334,27.916666666666664,200,20C285.41666666666663,12.083333333333334,316.66666666666663,-31.541666666666668,400,-28C483.33333333333337,-24.458333333333332,516.6666666666666,34.708333333333336,600,37C683.3333333333334,39.291666666666664,716.6666666666666,-14.708333333333334,800,-17C883.3333333333334,-19.291666666666668,916.6666666666666,26.833333333333332,1000,26C1083.3333333333333,25.166666666666668,1116.6666666666667,-23.083333333333332,1200,-21C1283.3333333333333,-18.916666666666668,1316.6666666666667,33.916666666666664,1400,36C1483.3333333333333,38.083333333333336,1516.6666666666667,-14.541666666666668,1600,-11C1683.3333333333333,-7.458333333333333,1716.6666666666667,48.625,1800,53C1883.3333333333333,57.375,1916.6666666666667,12.083333333333334,2000,10C2083.3333333333335,7.916666666666666,2118.75,43,2200,43C2281.25,43,2296.25,-64.375,2390,10C2483.75,84.375,3252.0833333333335,214.58333333333331,2650,400C2047.9166666666665,585.4166666666667,156.25,795.8333333333334,-500,900" transform="matrix(1,0,0,1,0,70)" opacity="0.21"></path><path d="M-10,10C33.75,12.083333333333334,114.58333333333334,27.916666666666664,200,20C285.41666666666663,12.083333333333334,316.66666666666663,-31.541666666666668,400,-28C483.33333333333337,-24.458333333333332,516.6666666666666,34.708333333333336,600,37C683.3333333333334,39.291666666666664,716.6666666666666,-14.708333333333334,800,-17C883.3333333333334,-19.291666666666668,916.6666666666666,26.833333333333332,1000,26C1083.3333333333333,25.166666666666668,1116.6666666666667,-23.083333333333332,1200,-21C1283.3333333333333,-18.916666666666668,1316.6666666666667,33.916666666666664,1400,36C1483.3333333333333,38.083333333333336,1516.6666666666667,-14.541666666666668,1600,-11C1683.3333333333333,-7.458333333333333,1716.6666666666667,48.625,1800,53C1883.3333333333333,57.375,1916.6666666666667,12.083333333333334,2000,10C2083.3333333333335,7.916666666666666,2118.75,43,2200,43C2281.25,43,2296.25,-64.375,2390,10C2483.75,84.375,3252.0833333333335,214.58333333333331,2650,400C2047.9166666666665,585.4166666666667,156.25,795.8333333333334,-500,900" transform="matrix(1,0,0,1,0,105)" opacity="0.37"></path><path d="M-10,10C33.75,12.083333333333334,114.58333333333334,27.916666666666664,200,20C285.41666666666663,12.083333333333334,316.66666666666663,-31.541666666666668,400,-28C483.33333333333337,-24.458333333333332,516.6666666666666,34.708333333333336,600,37C683.3333333333334,39.291666666666664,716.6666666666666,-14.708333333333334,800,-17C883.3333333333334,-19.291666666666668,916.6666666666666,26.833333333333332,1000,26C1083.3333333333333,25.166666666666668,1116.6666666666667,-23.083333333333332,1200,-21C1283.3333333333333,-18.916666666666668,1316.6666666666667,33.916666666666664,1400,36C1483.3333333333333,38.083333333333336,1516.6666666666667,-14.541666666666668,1600,-11C1683.3333333333333,-7.458333333333333,1716.6666666666667,48.625,1800,53C1883.3333333333333,57.375,1916.6666666666667,12.083333333333334,2000,10C2083.3333333333335,7.916666666666666,2118.75,43,2200,43C2281.25,43,2296.25,-64.375,2390,10C2483.75,84.375,3252.0833333333335,214.58333333333331,2650,400C2047.9166666666665,585.4166666666667,156.25,795.8333333333334,-500,900" transform="matrix(1,0,0,1,0,140)" opacity="0.53"></path><path d="M-10,10C33.75,12.083333333333334,114.58333333333334,27.916666666666664,200,20C285.41666666666663,12.083333333333334,316.66666666666663,-31.541666666666668,400,-28C483.33333333333337,-24.458333333333332,516.6666666666666,34.708333333333336,600,37C683.3333333333334,39.291666666666664,716.6666666666666,-14.708333333333334,800,-17C883.3333333333334,-19.291666666666668,916.6666666666666,26.833333333333332,1000,26C1083.3333333333333,25.166666666666668,1116.6666666666667,-23.083333333333332,1200,-21C1283.3333333333333,-18.916666666666668,1316.6666666666667,33.916666666666664,1400,36C1483.3333333333333,38.083333333333336,1516.6666666666667,-14.541666666666668,1600,-11C1683.3333333333333,-7.458333333333333,1716.6666666666667,48.625,1800,53C1883.3333333333333,57.375,1916.6666666666667,12.083333333333334,2000,10C2083.3333333333335,7.916666666666666,2118.75,43,2200,43C2281.25,43,2296.25,-64.375,2390,10C2483.75,84.375,3252.0833333333335,214.58333333333331,2650,400C2047.9166666666665,585.4166666666667,156.25,795.8333333333334,-500,900" transform="matrix(1,0,0,1,0,175)" opacity="0.68"></path><path d="M-10,10C33.75,12.083333333333334,114.58333333333334,27.916666666666664,200,20C285.41666666666663,12.083333333333334,316.66666666666663,-31.541666666666668,400,-28C483.33333333333337,-24.458333333333332,516.6666666666666,34.708333333333336,600,37C683.3333333333334,39.291666666666664,716.6666666666666,-14.708333333333334,800,-17C883.3333333333334,-19.291666666666668,916.6666666666666,26.833333333333332,1000,26C1083.3333333333333,25.166666666666668,1116.6666666666667,-23.083333333333332,1200,-21C1283.3333333333333,-18.916666666666668,1316.6666666666667,33.916666666666664,1400,36C1483.3333333333333,38.083333333333336,1516.6666666666667,-14.541666666666668,1600,-11C1683.3333333333333,-7.458333333333333,1716.6666666666667,48.625,1800,53C1883.3333333333333,57.375,1916.6666666666667,12.083333333333334,2000,10C2083.3333333333335,7.916666666666666,2118.75,43,2200,43C2281.25,43,2296.25,-64.375,2390,10C2483.75,84.375,3252.0833333333335,214.58333333333331,2650,400C2047.9166666666665,585.4166666666667,156.25,795.8333333333334,-500,900" transform="matrix(1,0,0,1,0,210)" opacity="0.84"></path><path d="M-10,10C33.75,12.083333333333334,114.58333333333334,27.916666666666664,200,20C285.41666666666663,12.083333333333334,316.66666666666663,-31.541666666666668,400,-28C483.33333333333337,-24.458333333333332,516.6666666666666,34.708333333333336,600,37C683.3333333333334,39.291666666666664,716.6666666666666,-14.708333333333334,800,-17C883.3333333333334,-19.291666666666668,916.6666666666666,26.833333333333332,1000,26C1083.3333333333333,25.166666666666668,1116.6666666666667,-23.083333333333332,1200,-21C1283.3333333333333,-18.916666666666668,1316.6666666666667,33.916666666666664,1400,36C1483.3333333333333,38.083333333333336,1516.6666666666667,-14.541666666666668,1600,-11C1683.3333333333333,-7.458333333333333,1716.6666666666667,48.625,1800,53C1883.3333333333333,57.375,1916.6666666666667,12.083333333333334,2000,10C2083.3333333333335,7.916666666666666,2118.75,43,2200,43C2281.25,43,2296.25,-64.375,2390,10C2483.75,84.375,3252.0833333333335,214.58333333333331,2650,400C2047.9166666666665,585.4166666666667,156.25,795.8333333333334,-500,900" transform="matrix(1,0,0,1,0,245)" opacity="1"></path></g></svg>