<svg class="border shadow-md" viewBox="0 0 1074.7733333333333 604.5600000000001" style="width: 1074.77px; height: 604.56px;" xmlns="http://www.w3.org/2000/svg" preserveAspectRatio="none"><rect class="bg" id="bg" x="0" y="0" width="1074.7733333333333" height="604.5600000000001" fill="#ffffff"/><g><path d="M 0 -40.304V -56.4256 H 53.73866666666667 V -32.2432 H 107.47733333333333 V -40.304 H 161.216 V -40.304 H 214.95466666666667 V -16.1216 H 268.6933333333333 V -64.4864 H 322.432 V -56.4256 H 376.17066666666665 V -16.1216 H 429.90933333333334 V -16.1216 H 483.648 V -16.1216 H 537.3866666666667 V -56.4256 H 591.1253333333333 V -16.1216 H 644.864 V -40.304 H 698.6026666666667 V -56.4256 H 752.3413333333333 V -32.2432 H 806.08 V -16.1216 H 859.8186666666667 V -48.3648 H 913.5573333333333 V -16.1216 H 967.296 V -16.1216 H 1021.0346666666667 V -16.1216 H 1074.7733333333333 V 605.5600000000001 H 0 V -40.304 Z" fill="#9396B9"/></g><g><path d="M 0 0V 8.0608 H 53.73866666666667 V 0 H 107.47733333333333 V 0 H 161.216 V -8.0608 H 214.95466666666667 V 24.1824 H 268.6933333333333 V 16.1216 H 322.432 V 0 H 376.17066666666665 V -8.0608 H 429.90933333333334 V -8.0608 H 483.648 V 8.0608 H 537.3866666666667 V -8.0608 H 591.1253333333333 V 24.1824 H 644.864 V 24.1824 H 698.6026666666667 V 8.0608 H 752.3413333333333 V 16.1216 H 806.08 V -16.1216 H 859.8186666666667 V 8.0608 H 913.5573333333333 V 8.0608 H 967.296 V -24.1824 H 1021.0346666666667 V 24.1824 H 1074.7733333333333 V 605.5600000000001 H 0 V 0 Z" fill="#8b8fb4"/></g><g><path d="M 0 40.304V 24.1824 H 53.73866666666667 V 56.4256 H 107.47733333333333 V 40.304 H 161.216 V 48.3648 H 214.95466666666667 V 64.4864 H 268.6933333333333 V 32.2432 H 322.432 V 48.3648 H 376.17066666666665 V 56.4256 H 429.90933333333334 V 24.1824 H 483.648 V 64.4864 H 537.3866666666667 V 40.304 H 591.1253333333333 V 24.1824 H 644.864 V 48.3648 H 698.6026666666667 V 64.4864 H 752.3413333333333 V 64.4864 H 806.08 V 64.4864 H 859.8186666666667 V 40.304 H 913.5573333333333 V 48.3648 H 967.296 V 48.3648 H 1021.0346666666667 V 48.3648 H 1074.7733333333333 V 605.5600000000001 H 0 V 40.304 Z" fill="#8388af"/></g><g><path d="M 0 80.608V 96.7296 H 53.73866666666667 V 72.5472 H 107.47733333333333 V 56.4256 H 161.216 V 104.7904 H 214.95466666666667 V 88.6688 H 268.6933333333333 V 56.4256 H 322.432 V 72.5472 H 376.17066666666665 V 88.6688 H 429.90933333333334 V 72.5472 H 483.648 V 104.7904 H 537.3866666666667 V 104.7904 H 591.1253333333333 V 88.6688 H 644.864 V 104.7904 H 698.6026666666667 V 88.6688 H 752.3413333333333 V 80.608 H 806.08 V 96.7296 H 859.8186666666667 V 88.6688 H 913.5573333333333 V 64.4864 H 967.296 V 88.6688 H 1021.0346666666667 V 88.6688 H 1074.7733333333333 V 605.5600000000001 H 0 V 80.608 Z" fill="#7b81aa"/></g><g><path d="M 0 120.912V 120.912 H 53.73866666666667 V 145.0944 H 107.47733333333333 V 96.7296 H 161.216 V 137.0336 H 214.95466666666667 V 137.0336 H 268.6933333333333 V 145.0944 H 322.432 V 104.7904 H 376.17066666666665 V 145.0944 H 429.90933333333334 V 128.9728 H 483.648 V 112.8512 H 537.3866666666667 V 128.9728 H 591.1253333333333 V 120.912 H 644.864 V 137.0336 H 698.6026666666667 V 120.912 H 752.3413333333333 V 104.7904 H 806.08 V 128.9728 H 859.8186666666667 V 120.912 H 913.5573333333333 V 128.9728 H 967.296 V 104.7904 H 1021.0346666666667 V 145.0944 H 1074.7733333333333 V 605.5600000000001 H 0 V 120.912 Z" fill="#737aa5"/></g><g><path d="M 0 161.216V 161.216 H 53.73866666666667 V 145.0944 H 107.47733333333333 V 161.216 H 161.216 V 161.216 H 214.95466666666667 V 137.0336 H 268.6933333333333 V 137.0336 H 322.432 V 137.0336 H 376.17066666666665 V 169.2768 H 429.90933333333334 V 177.3376 H 483.648 V 185.3984 H 537.3866666666667 V 185.3984 H 591.1253333333333 V 169.2768 H 644.864 V 169.2768 H 698.6026666666667 V 169.2768 H 752.3413333333333 V 177.3376 H 806.08 V 145.0944 H 859.8186666666667 V 185.3984 H 913.5573333333333 V 177.3376 H 967.296 V 161.216 H 1021.0346666666667 V 161.216 H 1074.7733333333333 V 605.5600000000001 H 0 V 161.216 Z" fill="#6b73a0"/></g><g><path d="M 0 201.52V 185.3984 H 53.73866666666667 V 177.3376 H 107.47733333333333 V 217.6416 H 161.216 V 193.4592 H 214.95466666666667 V 177.3376 H 268.6933333333333 V 217.6416 H 322.432 V 201.52 H 376.17066666666665 V 217.6416 H 429.90933333333334 V 209.5808 H 483.648 V 209.5808 H 537.3866666666667 V 201.52 H 591.1253333333333 V 193.4592 H 644.864 V 217.6416 H 698.6026666666667 V 209.5808 H 752.3413333333333 V 217.6416 H 806.08 V 217.6416 H 859.8186666666667 V 217.6416 H 913.5573333333333 V 209.5808 H 967.296 V 225.7024 H 1021.0346666666667 V 225.7024 H 1074.7733333333333 V 605.5600000000001 H 0 V 201.52 Z" fill="#636c9b"/></g><g><path d="M 0 241.824V 257.9456 H 53.73866666666667 V 266.0064 H 107.47733333333333 V 257.9456 H 161.216 V 249.8848 H 214.95466666666667 V 266.0064 H 268.6933333333333 V 241.824 H 322.432 V 233.7632 H 376.17066666666665 V 233.7632 H 429.90933333333334 V 266.0064 H 483.648 V 233.7632 H 537.3866666666667 V 257.9456 H 591.1253333333333 V 257.9456 H 644.864 V 266.0064 H 698.6026666666667 V 257.9456 H 752.3413333333333 V 217.6416 H 806.08 V 249.8848 H 859.8186666666667 V 266.0064 H 913.5573333333333 V 249.8848 H 967.296 V 257.9456 H 1021.0346666666667 V 217.6416 H 1074.7733333333333 V 605.5600000000001 H 0 V 241.824 Z" fill="#5b6596"/></g><g><path d="M 0 282.12800000000004V 298.24960000000004 H 53.73866666666667 V 257.9456 H 107.47733333333333 V 266.00640000000004 H 161.216 V 306.3104000000001 H 214.95466666666667 V 274.06720000000007 H 268.6933333333333 V 290.1888 H 322.432 V 266.00640000000004 H 376.17066666666665 V 274.06720000000007 H 429.90933333333334 V 282.12800000000004 H 483.648 V 290.1888 H 537.3866666666667 V 282.12800000000004 H 591.1253333333333 V 282.12800000000004 H 644.864 V 282.12800000000004 H 698.6026666666667 V 306.3104000000001 H 752.3413333333333 V 298.24960000000004 H 806.08 V 298.24960000000004 H 859.8186666666667 V 298.24960000000004 H 913.5573333333333 V 257.9456 H 967.296 V 298.24960000000004 H 1021.0346666666667 V 290.1888 H 1074.7733333333333 V 605.5600000000001 H 0 V 282.12800000000004 Z" fill="#535e91"/></g><g><path d="M 0 322.432V 322.432 H 53.73866666666667 V 346.61440000000005 H 107.47733333333333 V 322.432 H 161.216 V 330.4928 H 214.95466666666667 V 346.61440000000005 H 268.6933333333333 V 338.5536 H 322.432 V 322.432 H 376.17066666666665 V 322.432 H 429.90933333333334 V 330.4928 H 483.648 V 322.432 H 537.3866666666667 V 330.4928 H 591.1253333333333 V 322.432 H 644.864 V 322.432 H 698.6026666666667 V 322.432 H 752.3413333333333 V 322.432 H 806.08 V 338.5536 H 859.8186666666667 V 346.61440000000005 H 913.5573333333333 V 346.61440000000005 H 967.296 V 346.61440000000005 H 1021.0346666666667 V 338.5536 H 1074.7733333333333 V 605.5600000000001 H 0 V 322.432 Z" fill="#4b578c"/></g><g><path d="M 0 362.736V 370.79679999999996 H 53.73866666666667 V 362.736 H 107.47733333333333 V 338.55359999999996 H 161.216 V 362.736 H 214.95466666666667 V 378.8576 H 268.6933333333333 V 370.79679999999996 H 322.432 V 338.55359999999996 H 376.17066666666665 V 370.79679999999996 H 429.90933333333334 V 362.736 H 483.648 V 370.79679999999996 H 537.3866666666667 V 386.9184 H 591.1253333333333 V 370.79679999999996 H 644.864 V 362.736 H 698.6026666666667 V 386.9184 H 752.3413333333333 V 386.9184 H 806.08 V 354.6752 H 859.8186666666667 V 370.79679999999996 H 913.5573333333333 V 338.55359999999996 H 967.296 V 378.8576 H 1021.0346666666667 V 346.6144 H 1074.7733333333333 V 605.5600000000001 H 0 V 362.736 Z" fill="#435087"/></g><g><path d="M 0 403.04V 411.10080000000005 H 53.73866666666667 V 378.85760000000005 H 107.47733333333333 V 427.2224 H 161.216 V 378.85760000000005 H 214.95466666666667 V 403.04 H 268.6933333333333 V 427.2224 H 322.432 V 411.10080000000005 H 376.17066666666665 V 427.2224 H 429.90933333333334 V 419.1616 H 483.648 V 427.2224 H 537.3866666666667 V 411.10080000000005 H 591.1253333333333 V 419.1616 H 644.864 V 427.2224 H 698.6026666666667 V 403.04 H 752.3413333333333 V 427.2224 H 806.08 V 427.2224 H 859.8186666666667 V 403.04 H 913.5573333333333 V 394.9792 H 967.296 V 403.04 H 1021.0346666666667 V 427.2224 H 1074.7733333333333 V 605.5600000000001 H 0 V 403.04 Z" fill="#3b4982"/></g><g><path d="M 0 443.34400000000005V 427.22240000000005 H 53.73866666666667 V 451.4048 H 107.47733333333333 V 459.46560000000005 H 161.216 V 467.5264000000001 H 214.95466666666667 V 459.46560000000005 H 268.6933333333333 V 451.4048 H 322.432 V 419.1616 H 376.17066666666665 V 467.5264000000001 H 429.90933333333334 V 443.34400000000005 H 483.648 V 443.34400000000005 H 537.3866666666667 V 467.5264000000001 H 591.1253333333333 V 435.2832000000001 H 644.864 V 451.4048 H 698.6026666666667 V 451.4048 H 752.3413333333333 V 467.5264000000001 H 806.08 V 419.1616 H 859.8186666666667 V 467.5264000000001 H 913.5573333333333 V 459.46560000000005 H 967.296 V 419.1616 H 1021.0346666666667 V 459.46560000000005 H 1074.7733333333333 V 605.5600000000001 H 0 V 443.34400000000005 Z" fill="#33427d"/></g><g><path d="M 0 483.648V 491.7088 H 53.73866666666667 V 483.648 H 107.47733333333333 V 499.7696 H 161.216 V 467.5264 H 214.95466666666667 V 483.648 H 268.6933333333333 V 499.7696 H 322.432 V 499.7696 H 376.17066666666665 V 467.5264 H 429.90933333333334 V 507.83040000000005 H 483.648 V 499.7696 H 537.3866666666667 V 499.7696 H 591.1253333333333 V 491.7088 H 644.864 V 459.4656 H 698.6026666666667 V 467.5264 H 752.3413333333333 V 499.7696 H 806.08 V 459.4656 H 859.8186666666667 V 467.5264 H 913.5573333333333 V 491.7088 H 967.296 V 507.83040000000005 H 1021.0346666666667 V 467.5264 H 1074.7733333333333 V 605.5600000000001 H 0 V 483.648 Z" fill="#2b3b78"/></g><g><path d="M 0 523.952V 548.1344 H 53.73866666666667 V 548.1344 H 107.47733333333333 V 523.952 H 161.216 V 523.952 H 214.95466666666667 V 523.952 H 268.6933333333333 V 540.0735999999999 H 322.432 V 507.8304 H 376.17066666666665 V 499.76959999999997 H 429.90933333333334 V 507.8304 H 483.648 V 540.0735999999999 H 537.3866666666667 V 523.952 H 591.1253333333333 V 532.0128 H 644.864 V 548.1344 H 698.6026666666667 V 515.8912 H 752.3413333333333 V 548.1344 H 806.08 V 532.0128 H 859.8186666666667 V 548.1344 H 913.5573333333333 V 540.0735999999999 H 967.296 V 540.0735999999999 H 1021.0346666666667 V 523.952 H 1074.7733333333333 V 605.5600000000001 H 0 V 523.952 Z" fill="#233473"/></g><g><path d="M 0 564.2560000000001V 564.2560000000001 H 53.73866666666667 V 588.4384000000001 H 107.47733333333333 V 572.3168000000001 H 161.216 V 548.1344000000001 H 214.95466666666667 V 588.4384000000001 H 268.6933333333333 V 564.2560000000001 H 322.432 V 588.4384000000001 H 376.17066666666665 V 580.3776 H 429.90933333333334 V 540.0736 H 483.648 V 572.3168000000001 H 537.3866666666667 V 564.2560000000001 H 591.1253333333333 V 572.3168000000001 H 644.864 V 588.4384000000001 H 698.6026666666667 V 588.4384000000001 H 752.3413333333333 V 580.3776 H 806.08 V 588.4384000000001 H 859.8186666666667 V 580.3776 H 913.5573333333333 V 540.0736 H 967.296 V 588.4384000000001 H 1021.0346666666667 V 564.2560000000001 H 1074.7733333333333 V 605.5600000000001 H 0 V 564.2560000000001 Z" fill="#1b2d6e"/></g></svg>